<svg id="Capa_1" enable-background="new 0 0 512 512" height="512" viewBox="0 0 512 512" width="512" xmlns="http://www.w3.org/2000/svg"><g><path d="m507.608 110.339-105.943-105.94c-5.857-5.857-15.355-5.857-21.212 0-18.566 18.561-316.242 316.162-322.322 322.24-1.637 1.637-2.873 3.631-3.611 5.825l-53.715 159.726c-3.942 11.723 7.259 22.945 18.998 18.998l159.73-53.713c2.195-.738 4.188-1.974 5.825-3.611 6.066-6.067 303.725-303.784 322.25-322.313 5.854-5.854 5.857-15.355 0-21.212zm-174.54-16.204 31.795 31.794-230.2 230.193c-6.627-14.183-18.511-25.223-32.712-30.876zm-294.203 378.993 14.677-43.642 28.967 28.966zm75.392-25.352-50.039-50.037 15.717-46.735c17.961.199 32.263 15.94 30.21 34.272-1.072 9.568 7.037 17.651 16.576 16.576 18.348-2.058 34.076 12.268 34.274 30.208zm72.495-37.73c-5.665-14.233-16.724-26.099-30.876-32.713l230.2-230.193 31.795 31.794zm252.295-252.359-84.73-84.728 36.742-36.741 84.731 84.728z"/></g></svg>